P3
16 16
30
30 30 30   30 30 30   30 30 30   30 30 30   30 30 30   30 30 30   30 30 30   30 30 30   30 30 30   30 30 30   30 30 30   30 30 30   30 30 30   30 30 30   30 30 30   30 30 30   30 30 30   0 0 0   0 0 0   0 0 0   0 0 0   0 0 0   0 0 0   0 0 0   0 0 0   0 0 0   0 0 0   0 0 0   0 0 0   0 0 0   0 0 0   30 30 30   30 30 30   0 0 0   0 0 0   0 0 0   0 0 0   0 0 0   0 0 0   0 0 0   0 0 0   0 0 0   0 0 0   0 0 0   0 0 0   0 0 0   0 0 0   30 30 30   30 30 30   0 0 0   0 0 0   0 0 0   0 0 0   0 0 0   0 0 0   0 0 0   0 0 0   0 0 0   0 0 0   0 0 0   
0 0 0   0 0 0   0 0 0   30 30 30   30 30 30   0 0 0   0 0 0   0 0 0   0 0 0   0 0 0   0 0 0   0 0 0   0 0 0   0 0 0   0 0 0   0 0 0   0 0 0   0 0 0   0 0 0   30 30 30   30 30 30   0 0 0   0 0 0   0 0 0   0 0 0   0 0 0   0 0 0   0 0 0   0 0 0   0 0 0   0 0 0   0 0 0   0 0 0   0 0 0   0 0 0   30 30 30   30 30 30   0 0 0   0 0 0   0 0 0   0 0 0   0 0 0   0 0 0   0 0 0   0 0 0   0 0 0   0 0 0   0 0 0   0 0 0   0 0 0   0 0 0   30 30 30   30 30 30   0 0 0   0 0 0   0 0 0   0 0 0   0 0 0   0 0 0   0 0 0   
30 0 0   0 0 0   0 0 0   0 0 0   0 0 0   0 0 0   0 0 0   30 30 30   30 30 30   0 0 0   0 0 0   0 0 0   0 0 0   0 0 0   0 0 0   30 0 0   0 3 6   30 0 0   0 0 0   0 0 0   0 0 0   0 0 0   0 0 0   30 30 30   30 30 30   0 0 0   0 0 0   0 0 0   0 0 0   0 0 0   0 0 0   0 0 0   30 0 0   0 0 0   0 0 0   0 0 0   0 0 0   0 0 0   0 0 0   30 30 30   30 30 30   0 0 0   0 0 0   0 0 0   0 0 0   0 0 0   0 0 0   0 0 0   0 0 0   0 0 0   0 0 0   0 0 0   0 0 0   0 0 0   0 0 0   30 30 30   30 30 30   0 0 0   0 0 0   0 0 0   
0 0 0   0 0 0   0 0 0   0 0 0   0 0 0   0 0 0   0 0 0   0 0 0   0 0 0   0 0 0   0 0 0   30 30 30   30 30 30   0 0 0   0 0 0   0 0 0   0 0 0   0 0 0   0 0 0   0 0 0   0 0 0   0 0 0   0 0 0   0 0 0   0 0 0   0 0 0   0 0 0   30 30 30   30 30 30   0 0 0   0 0 0   0 0 0   0 0 0   0 0 0   0 0 0   0 0 0   0 0 0   0 0 0   0 0 0   0 0 0   0 0 0   0 0 0   0 0 0   30 30 30   30 30 30   0 0 0   0 0 0   0 0 0   0 0 0   0 0 0   0 0 0   0 0 0   0 0 0   0 0 0   0 0 0   0 0 0   0 0 0   0 0 0   0 0 0   30 30 30   
30 30 30   30 30 30   30 30 30   30 30 30   30 30 30   30 30 30   30 30 30   30 30 30   30 30 30   30 30 30   30 30 30   30 30 30   30 30 30   30 30 30   30 30 30   30 30 30   